<?xml version="1.0" encoding="utf-8"?>
<!-- Generator: Adobe Illustrator 28.2.0, SVG Export Plug-In . SVG Version: 6.00 Build 0)  -->
<svg version="1.1" id="Camada_1" xmlns="http://www.w3.org/2000/svg" xmlns:xlink="http://www.w3.org/1999/xlink" x="0px" y="0px"
	 viewBox="0 0 2189.6 2192.4" style="enable-background:new 0 0 2189.6 2192.4;" xml:space="preserve">
<style type="text/css">
	.st0{fill:url(#SVGID_1_);}
	.st1{fill:url(#SVGID_00000126319230345983466610000009319445807526685859_);}
	.st2{fill:url(#SVGID_00000027605976220594664830000018009111785751129753_);}
	.st3{fill:url(#SVGID_00000029006725061710088960000007856980410384909245_);}
	.st4{fill:url(#SVGID_00000052079471678180423200000016195326036049025931_);}
	.st5{fill:url(#SVGID_00000061444500235235081900000008579075394589459596_);}
	.st6{fill:url(#SVGID_00000150070228287703727540000003029750774915886754_);}
	.st7{fill:url(#SVGID_00000159437405857972671860000004476733688069635511_);}
	.st8{fill:url(#SVGID_00000083793259087324884050000012268559707899349396_);}
	.st9{fill:url(#SVGID_00000101062847854955116140000013789277388371981972_);}
	.st10{fill:url(#SVGID_00000096745885040134072230000016054724288169556107_);}
	.st11{fill:url(#SVGID_00000175299728132828620090000010241461412386488704_);}
</style>
<g>
	<g>
		<g>
			
				<linearGradient id="SVGID_1_" gradientUnits="userSpaceOnUse" x1="651.9878" y1="707.1405" x2="651.9878" y2="-1484.959" gradientTransform="matrix(1 0 0 1 0 1485.059)">
				<stop  offset="1.318911e-07" style="stop-color:#ED294D"/>
				<stop  offset="1" style="stop-color:#A51F50"/>
			</linearGradient>
			<path class="st0" d="M634.3,639.1c1.3-0.3,2.6-0.6,3.7,0.2c2.1,1.5,4.2,3,6.2,4.6c62.7,49.1,125.4,98.2,188.1,147.3
				c44.6,34.9,89.1,69.8,133.7,104.7c2.5,2,4.9,4.1,8.1,5.4c1.5-0.6,3-1.1,4.3-1.8c10-5.1,20.3-9.3,30.9-13c0.9-0.3,1.8-0.5,2.7-0.9
				c1.9-0.8,3.1-2.2,3.3-4.3c0.7-6.4,1.3-12.7,1.9-19.1c1.2-12.7,2.3-25.5,3.5-38.2c0.9-10.2,1.7-20.4,2.6-30.6
				c1-10.8,2-21.6,3-32.5c0.8-8.9,1.6-17.8,2.4-26.8c0.6-6.4,1.2-12.7,1.7-19.1c0.9-10.5,1.7-21,2.6-31.5
				c0.9-10.2,1.9-20.4,2.9-30.5c0.7-7.6,1.4-15.3,2.1-22.9c0.8-9.6,1.6-19.1,2.4-28.7c1-11.5,2.1-22.9,3.1-34.4
				c0.7-8,1.5-15.9,2.2-23.9c0.9-10.2,1.6-20.4,2.5-30.6c0.9-10.5,2-21,2.9-31.5c0.7-7.6,1.4-15.3,2.1-22.9
				c0.9-10.2,1.7-20.4,2.6-30.6c1-10.8,2-21.6,3-32.5c0.8-8.9,1.6-17.8,2.4-26.7c0.6-6.4,1.2-12.7,1.7-19.1
				c0.9-10.5,1.7-21,2.6-31.5s2-21,3-31.5c0.7-7.3,1.3-14.6,2-22c0.9-10.2,1.7-20.4,2.6-30.6c1-10.8,2-21.6,3-32.5
				c0.8-8.3,1.6-16.5,2.3-24.8c0.9-10.5,1.7-21,2.6-31.5c0.9-10.2,2-20.4,2.9-30.5c0.8-8.6,1.5-17.2,2.3-25.8
				c0.6-6.4,1.2-12.7,1.7-19.1c0.9-10.5,1.6-21,2.6-31.5c1.1-11.5,2.2-22.9,3.4-34.3c0.1-0.8,0.5-1.6,1-3.5c0.9,10,1.6,19,2.4,27.9
				c1,10.5,2,21,3,31.5c0.7,7.6,1.4,15.3,2.1,22.9c0.9,10.2,1.7,20.4,2.6,30.6c1,10.8,2,21.6,3,32.5c0.7,7.6,1.4,15.3,2.1,22.9
				c0.9,10.2,1.7,20.4,2.6,30.6c1,10.8,2,21.6,3,32.5c0.7,7.6,1.4,15.3,2.1,22.9c0.9,10.2,1.7,20.4,2.6,30.6c1,10.8,2,21.6,3,32.5
				c0.7,7.6,1.4,15.3,2.1,22.9c0.9,9.9,1.6,19.8,2.5,29.6c1,11.1,2,22.3,3.1,33.4c0.8,9.2,1.7,18.5,2.5,27.7
				c0.5,5.7,1.1,11.5,1.6,17.2c0.9,10.2,1.7,20.4,2.6,30.6c1,10.8,2,21.6,3,32.5c0.7,7.6,1.4,15.3,2.1,22.9
				c0.9,10.2,1.7,20.4,2.6,30.6c1,10.8,2,21.6,3,32.5c0.8,8.3,1.6,16.5,2.3,24.8c0.9,10.5,1.6,21,2.6,31.5c0.9,10.2,2,20.4,2.9,30.6
				c0.8,8.6,1.5,17.2,2.3,25.8c0.6,6.4,1.2,12.7,1.7,19.1c0.9,10.2,1.6,20.4,2.5,30.6c0.9,10.5,2,21,2.9,31.5
				c0.7,7.6,1.4,15.3,2.1,22.9c0.9,10.2,1.7,20.4,2.6,30.6c1,10.8,2,21.6,3,32.5c0.2,1.9,0.2,3.8,0.2,5.7c0,0.7-1.4,1.7-2.1,1.5
				c-2.2-0.5-4.4-1-6.5-1.6c-13.6-3.7-27.3-6.5-41.4-7.4c-6.1-0.4-12.1-1.4-18.2-1c-1.2,0.1-2.4,0.2-3.9,0.4c0.5,0.5,0.7,0.9,1,0.9
				c4.4,0.8,8.8,1.7,13.2,2.3c44.9,5.9,83.6,24.8,116.9,55.3c18.5,17,34.1,36.3,46.1,58.5c11.2,20.7,18.6,42.7,22.4,66
				c2.5,15.2,3.7,30.5,3.3,45.8c-1.5,58.5-22,109.1-63.2,151c-15.8,16.1-33.3,29.9-53.2,40.6c-20.1,10.9-41.4,18.4-64,22.1
				c-5.3,0.9-10.7,1.7-16.1,2.5c-0.2,0-0.6,0.6-0.6,0.6c0.3,0.4,0.7,1,1.1,1.1c6.1,0.7,12.2,0.4,18.2-0.3c13.7-1.6,27.2-4,40.4-7.9
				c1.2-0.4,2.4-0.7,3.7-1c1.1-0.3,2.7,0.9,2.7,2c0,0.3,0.1,0.6,0.1,1c-0.8,8.9-1.7,17.8-2.5,26.7c-0.7,7.6-1.4,15.3-2.1,22.9
				c-0.9,10.2-1.7,20.4-2.6,30.6c-1,10.8-2,21.6-3,32.5c-0.7,7.6-1.4,15.3-2.1,22.9c-0.9,10.2-1.7,20.4-2.6,30.6
				c-1,10.8-2,21.7-3,32.5c-0.7,8-1.5,15.9-2.2,23.9c-0.9,10.2-1.6,20.4-2.5,30.6c-0.9,10.5-2,21-2.9,31.5
				c-0.7,7.6-1.4,15.3-2.1,22.9c-0.9,9.9-1.7,19.8-2.5,29.6c-1,11.1-2.1,22.3-3.1,33.4c-0.8,9.2-1.7,18.5-2.5,27.7
				c-0.5,5.7-1.1,11.5-1.6,17.2c-0.8,9.9-1.6,19.8-2.5,29.6c-1,11.1-2,22.3-3.1,33.4c-0.7,7.6-1.4,15.3-2.1,22.9
				c-0.9,9.9-1.6,19.8-2.5,29.6c-1,11.1-2.1,22.3-3.1,33.4c-0.8,9.2-1.7,18.5-2.5,27.7c-0.5,5.7-1.1,11.5-1.6,17.2
				c-0.9,10.2-1.7,20.4-2.6,30.6c-1,10.8-2,21.6-3,32.5c-0.7,7.6-1.4,15.3-2.1,22.9c-0.9,10.2-1.7,20.4-2.6,30.6
				c-1,10.8-2,21.6-3,32.5c-0.7,7.6-1.4,15.3-2.1,22.9c-0.9,9.9-1.6,19.8-2.5,29.6c-1,11.1-2.1,22.3-3.1,33.4
				c-1,10.8-1.9,21.7-2.8,32.5c-1.7-0.3-1.2-1.7-1.3-2.5c-0.6-5.4-1.2-10.8-1.7-16.2c-1-10.8-2-21.6-3-32.5
				c-0.7-8-1.5-15.9-2.2-23.9c-0.9-10.2-1.7-20.4-2.6-30.6c-1-10.8-2-21.6-3-32.5c-0.7-7.6-1.4-15.3-2.1-22.9
				c-0.9-10.2-1.7-20.4-2.6-30.6c-1-10.8-2-21.6-3-32.5c-0.7-7.6-1.4-15.3-2.1-22.9c-0.8-9.9-1.6-19.8-2.5-29.6
				c-1-11.2-2.1-22.3-3.1-33.4c-0.7-7.6-1.4-15.3-2.1-22.9c-0.9-9.9-1.6-19.8-2.5-29.6c-1-11.2-2-22.3-3.1-33.4
				c-0.8-9.2-1.7-18.5-2.5-27.7c-0.5-5.7-1.1-11.5-1.6-17.2c-0.9-10.2-1.6-20.4-2.5-30.6c-1-10.8-2-21.6-3-32.5
				c-0.7-8-1.5-15.9-2.2-23.9c-0.9-10.2-1.6-20.4-2.5-30.6c-0.9-10.5-2-21-3-31.5c-0.8-8.3-1.5-16.5-2.3-24.8
				c-0.9-10.5-1.6-21-2.6-31.6c-0.9-10.2-2-20.4-3-30.6c-0.7-7.3-1.3-14.6-2-22c-0.8-9.9-1.6-19.8-2.5-29.6c-1-11.2-2-22.3-3.1-33.4
				c-0.8-8.3-1.6-16.5-2.3-24.8c-0.9-10.5-1.7-21-2.6-31.6c-0.9-10.2-2-20.4-2.9-30.6c-0.8-8.6-1.5-17.2-2.3-25.8
				c-0.1-1.3-0.2-2.6-0.6-3.8c-0.3-0.8-1-1.6-1.8-2.1c-1.4-0.8-2.9-1.3-4.4-1.8c-11.3-3.6-22.2-8.2-32.7-13.7
				c-1.4-0.7-2.9-1.2-4.1-1.7c-3.5,1.1-5.8,3.4-8.3,5.4c-23.4,18.3-46.8,36.7-70.3,55c-76,59.6-152.1,119.1-228.1,178.7
				c-9.8,7.7-19.6,15.3-29.3,22.9c-0.9-0.4-1-0.9-0.5-1.6c8.2-10.6,16.5-21.2,24.7-31.8c75.3-96.2,150.7-192.3,226-288.5
				c2.2-2.8,4.3-5.6,6.5-8.3c1.6-2.1,1.4-4,0.1-6.1c-8.2-12.6-15.1-26-20.5-40.1c-0.2-0.6-0.5-1.2-0.8-1.8c-0.8-2-2.3-3-4.4-3.1
				c-8-0.7-15.9-1.4-23.9-2.2c-10.8-1-21.6-2-32.5-3c-1.3-0.1-2.5-0.3-3.8-0.4c-18.2-1.5-36.3-3-54.5-4.6c-14.3-1.2-28.7-2.5-43-3.8
				s-28.7-2.6-43-3.8c-14.3-1.3-28.7-2.6-43-3.8c-14.3-1.3-28.7-2.6-43-3.8c-14.3-1.3-28.7-2.5-43-3.8c-17.2-1.6-34.4-3.3-51.6-4.9
				c-10.5-1-21-1.7-31.5-2.6s-21-2-31.5-3c-8-0.8-15.9-1.5-23.9-2.2c-10.5-0.9-21-1.7-31.5-2.6c-10.2-0.9-20.4-1.9-30.5-2.9
				c-1.3-0.1-2.5-0.3-3.8-0.4c-14-1.3-28-2.5-42-3.8c-10.5-0.9-21-1.6-31.5-2.6c-10.2-0.9-20.4-2-30.5-2.9c-8-0.8-15.9-1.5-23.9-2.2
				c-10.5-0.9-21-1.7-31.5-2.6c-10.2-0.9-20.4-2-30.5-2.9c-7.6-0.7-15.3-1.4-22.9-2.1c-10.2-0.9-20.4-1.7-30.6-2.6
				c-10.8-1-21.6-2-32.5-3c-2.9-0.3-5.7-0.4-8.6-0.7c-16.2-1.4-32.3-2.9-48.7-4.3c0.7-0.6,1.1-1.2,1.6-1.3c1.9-0.4,3.8-0.8,5.7-1
				c6.7-0.7,13.4-1.3,20.1-1.8c10.5-0.9,21-1.7,31.5-2.6c10.2-0.9,20.4-2,30.5-2.9c7.6-0.7,15.3-1.4,22.9-2.1
				c10.2-0.9,20.4-1.7,30.6-2.6c10.8-1,21.6-2,32.5-3c7.6-0.7,15.3-1.4,22.9-2.1c10.2-0.9,20.4-1.7,30.6-2.6c10.8-1,21.6-2,32.5-3
				c7.6-0.7,15.3-1.4,22.9-2.1c10.2-0.9,20.4-1.7,30.6-2.6c10.8-1,21.6-2,32.5-3c8.6-0.8,17.2-1.6,25.8-2.4
				c6.7-0.6,13.4-1.2,20.1-1.8c10.5-0.9,21-1.7,31.5-2.6c10.2-0.9,20.4-1.9,30.5-2.9c7.6-0.7,15.3-1.4,22.9-2.1
				c10.2-0.9,20.4-1.7,30.6-2.5c10.8-1,21.6-2,32.5-3c7.6-0.7,15.3-1.4,22.9-2.1c10.2-0.9,20.4-1.7,30.6-2.6c10.8-0.9,21.6-2,32.5-3
				c8.6-0.8,17.2-1.6,25.8-2.3c6.7-0.6,13.4-1.2,20.1-1.8c10.5-0.9,21-1.6,31.5-2.6c10.2-0.9,20.4-2,30.5-2.9
				c7.6-0.7,15.3-1.4,22.9-2.1c10.2-0.9,20.4-1.7,30.6-2.6c10.8-1,21.6-2,32.5-3c10.8-1,21.7-1.8,32.5-2.8
				c5.1-0.5,10.2-1.1,15.2-1.7c1.7-0.2,2.9-1.2,3.7-2.7c0.6-1.1,1-2.3,1.5-3.5c5.1-12.1,11.1-23.8,18.3-34.7c0.7-1.1,1.4-2.1,2-3.3
				c0.8-1.5,0.9-3.1-0.1-4.6c-1.4-2.1-3-4.1-4.6-6.1C831.2,889,772.6,814.2,714,739.4c-24.3-31-48.5-61.9-72.8-92.9
				c-2.1-2.7-3.7-6-7-7.7L634.3,639.1z M1084.5,1209.3c1.2-0.1,4.4-0.3,7.6-0.4c9.4-0.3,18.4-2.3,27.1-5.5
				c27.4-10,47.4-28.4,61.4-53.7c3.4-6.2,5.9-12.7,7.9-19.5c3.4-11.5,4.5-23.2,4.3-35.1c-0.2-9-1.2-17.8-3.6-26.5
				c-9.5-35.8-39.1-62-62.8-72.3c-22.5-9.8-45.8-11.7-69.5-6.5c-34.9,7.7-60.1,28.6-76.5,60.1c-6.6,12.6-9.6,26.3-10.4,40.6
				c-0.9,15.2,0.8,30,5.7,44.4c6.5,18.9,17.9,34.5,32.9,47.6C1029.8,1200.9,1054.5,1209.6,1084.5,1209.3z"/>
			
				<linearGradient id="SVGID_00000031176738642604828120000005094621855263393173_" gradientUnits="userSpaceOnUse" x1="1751.071" y1="707.241" x2="1751.071" y2="-1484.9559" gradientTransform="matrix(1 0 0 1 0 1485.059)">
				<stop  offset="1.318911e-07" style="stop-color:#ED294D"/>
				<stop  offset="1" style="stop-color:#A51F50"/>
			</linearGradient>
			<path style="fill:url(#SVGID_00000031176738642604828120000005094621855263393173_);" d="M2189.6,1097.7
				c-14.4,1.4-28.1,2.8-41.8,4c-10.5,1-21,1.7-31.5,2.6c-10.2,0.9-20.4,1.9-30.6,2.9c-1.3,0.1-2.5,0.3-3.8,0.4
				c-10.8,0.9-21.7,1.6-32.5,2.6c-17.5,1.6-35,3.4-52.5,5c-10.5,1-21,1.6-31.5,2.6c-10.2,0.9-20.4,1.9-30.6,2.9
				c-1.6,0.2-3.2,0.3-4.8,0.4c-17.8,1.5-35.7,3-53.5,4.5c-14.3,1.2-28.7,2.5-43,3.8s-28.7,2.6-43,3.8c-14.3,1.3-28.7,2.5-43,3.8
				s-28.7,2.6-43,3.8s-28.7,2.5-43,3.8c-17.2,1.6-34.4,3.3-51.5,4.9c-10.2,0.9-20.4,1.6-30.6,2.5c-10.8,1-21.6,2-32.5,3
				c-0.9,0.1-1.9,0.2-2.9,0.3c-14.3,1.3-28.7,2.6-43,3.8c-10.5,0.9-21,1.6-31.5,2.5c-10.2,0.9-20.4,2-30.5,2.9
				c-7.6,0.7-15.3,1.4-22.9,2.1c-10.2,0.9-20.4,1.6-30.6,2.5c-10.8,1-21.6,2.1-32.5,3c-10.8,1-21.7,1.9-32.5,2.7
				c-1.9,0.2-3.8,0-5.7-0.1c-0.8,0-1.7-1.3-1.5-2.1c0.4-1.5,0.8-3.1,1.2-4.6c4.8-15.3,7.8-31,9.3-46.9c0.7-7.3,0.7-14.7,0.8-22
				c0.5-25.5-3.1-50.3-11.1-74.5c-0.4-1.2-0.6-2.5-0.9-3.7c-0.3-1.4,0.6-2.6,1.9-2.6c2.9,0.1,5.8,0.2,8.6,0.4
				c13.1,1.1,26.1,2.3,39.2,3.5c10.2,0.9,20.4,2,30.5,2.9c7.6,0.7,15.3,1.4,22.9,2.1c10.2,0.9,20.4,1.7,30.6,2.6
				c10.8,1,21.6,2,32.5,3c7.6,0.7,15.3,1.4,22.9,2.1c9.9,0.8,19.8,1.6,29.6,2.5c11.1,1,22.3,2.1,33.4,3.1c7.6,0.7,15.3,1.4,22.9,2.1
				c9.9,0.9,19.8,1.6,29.6,2.5c11.1,1,22.3,2,33.4,3.1c8.3,0.8,16.6,1.6,24.8,2.3c10.5,0.9,21,1.7,31.5,2.6
				c10.2,0.9,20.4,2,30.5,2.9c7.6,0.7,15.3,1.4,22.9,2.1c10.2,0.9,20.4,1.6,30.6,2.5c10.5,0.9,21,1.9,31.5,2.9
				c1.6,0.2,3.2,0.3,4.8,0.5c13.7,1.2,27.4,2.5,41.1,3.7c10.5,0.9,21,1.7,31.5,2.6s21,2,31.5,3c7.6,0.7,15.3,1.4,22.9,2.1
				c10.2,0.9,20.4,1.6,30.6,2.5c10.5,0.9,21,2,31.5,2.9c1.6,0.2,3.2,0.3,4.8,0.5c13.7,1.2,27.4,2.5,41.1,3.7
				c10.5,0.9,21,1.7,31.5,2.6s21,2,31.5,3c8.9,0.8,17.8,1.6,26.8,2.4c10.2,0.9,20.4,1.6,30.6,2.5
				C2185.2,1095.8,2187.4,1095.9,2189.6,1097.7z"/>
			
				<linearGradient id="SVGID_00000042001291438073348110000018087319592525045681_" gradientUnits="userSpaceOnUse" x1="1384.4481" y1="707.241" x2="1384.4481" y2="-1485.0806" gradientTransform="matrix(1 0 0 1 0 1485.059)">
				<stop  offset="1.318911e-07" style="stop-color:#ED294D"/>
				<stop  offset="1" style="stop-color:#A51F50"/>
			</linearGradient>
			<path style="fill:url(#SVGID_00000042001291438073348110000018087319592525045681_);" d="M1215.2,903.1c1-1.2,1.5-2,2.2-2.6
				c111.7-87.6,223.5-175.1,335-262.5c1.3,0.2,1.6,0.7,1,1.4c-12,15.4-24,30.7-36.1,46.1c-73.4,93.7-146.7,187.3-220.1,280.9
				c-1.8,2.3-3.6,4.5-5.4,6.7c-1.2,1.5-2.6,1.3-3.9-0.4c-0.8-1-1.5-2.1-2.3-3.1c-17.7-24.7-39.2-45.5-64.8-61.9
				c-1.6-1-3.1-2.2-4.7-3.3C1216,904.2,1215.9,903.9,1215.2,903.1z"/>
			
				<linearGradient id="SVGID_00000036243308117199172970000010494571526601247117_" gradientUnits="userSpaceOnUse" x1="1385.881" y1="707.241" x2="1385.881" y2="-1485.0806" gradientTransform="matrix(1 0 0 1 0 1485.059)">
				<stop  offset="1.318911e-07" style="stop-color:#ED294D"/>
				<stop  offset="1" style="stop-color:#A51F50"/>
			</linearGradient>
			<path style="fill:url(#SVGID_00000036243308117199172970000010494571526601247117_);" d="M1554.4,1558.3
				c-2.1-1.9-4.2-3.9-6.4-5.7c-37-29-74-58-111-86.9c-71-55.6-141.9-111.2-212.9-166.8c-2-1.6-4-3.2-5.9-4.9
				c-1.1-0.9-1.1-2.5-0.1-3.3c1.8-1.3,3.7-2.6,5.5-3.8c24.1-16.2,44.6-36.2,61.6-59.8c1.6-2.3,2.7-5.1,5.4-6.5
				c2.5,1.1,3.8,3.4,5.3,5.4c13,16.6,26,33.2,39,49.8c70.8,90.3,141.5,180.7,212.3,271c1.8,2.3,3.5,4.6,5.3,6.8
				c1,1.3,1.3,2.9,1.4,4.5L1554.4,1558.3z"/>
			
				<linearGradient id="SVGID_00000129904087615321166380000003185179012117816760_" gradientUnits="userSpaceOnUse" x1="634.4" y1="707.241" x2="634.4" y2="-1485.0806" gradientTransform="matrix(1 0 0 1 0 1485.059)">
				<stop  offset="1.318911e-07" style="stop-color:#ED294D"/>
				<stop  offset="1" style="stop-color:#A51F50"/>
			</linearGradient>
			<path style="fill:url(#SVGID_00000129904087615321166380000003185179012117816760_);" d="M634.1,638.8c0.2,0,0.4,0.1,0.6,0.1
				c-0.1-0.6-0.2-0.5-0.4,0.2C634.3,639.1,634.1,638.8,634.1,638.8z"/>
			
				<linearGradient id="SVGID_00000124852246258521830510000000471885053628896435_" gradientUnits="userSpaceOnUse" x1="1554.3" y1="707.241" x2="1554.3" y2="-1485.0806" gradientTransform="matrix(1 0 0 1 0 1485.059)">
				<stop  offset="1.318911e-07" style="stop-color:#ED294D"/>
				<stop  offset="1" style="stop-color:#A51F50"/>
			</linearGradient>
			<path style="fill:url(#SVGID_00000124852246258521830510000000471885053628896435_);" d="M1554,1558.2c0.2-0.1,0.4-0.2,0.6-0.3
				c-0.5-0.4-0.6-0.3-0.2,0.4C1554.4,1558.3,1554,1558.2,1554,1558.2z"/>
		</g>
	</g>
	<g>
		<g>
			
				<linearGradient id="SVGID_00000178199614766794631400000017543028386161650305_" gradientUnits="userSpaceOnUse" x1="1094.5503" y1="2192.1995" x2="1094.5503" y2="9.995351e-02">
				<stop  offset="5.327789e-09" style="stop-color:#FF1842"/>
				<stop  offset="1" style="stop-color:#AD007C"/>
			</linearGradient>
			<path style="fill:url(#SVGID_00000178199614766794631400000017543028386161650305_);" d="M634.3,639.1c1.3-0.3,2.6-0.6,3.7,0.2
				c2.1,1.5,4.2,3,6.2,4.6c62.7,49.1,125.4,98.2,188.1,147.3c44.6,34.9,89.1,69.8,133.7,104.7c2.5,2,4.9,4.1,8.1,5.4
				c1.5-0.6,3-1.1,4.3-1.8c10-5.1,20.3-9.3,30.9-13c0.9-0.3,1.8-0.5,2.7-0.9c1.9-0.8,3.1-2.2,3.3-4.3c0.7-6.4,1.3-12.7,1.9-19.1
				c1.2-12.7,2.3-25.5,3.5-38.2c0.9-10.2,1.7-20.4,2.6-30.6c1-10.8,2-21.6,3-32.5c0.8-8.9,1.6-17.8,2.4-26.8
				c0.6-6.4,1.2-12.7,1.7-19.1c0.9-10.5,1.7-21,2.6-31.5c0.9-10.2,1.9-20.4,2.9-30.5c0.7-7.6,1.4-15.3,2.1-22.9
				c0.8-9.6,1.6-19.1,2.4-28.7c1-11.5,2.1-22.9,3.1-34.4c0.7-8,1.5-15.9,2.2-23.9c0.9-10.2,1.6-20.4,2.5-30.6
				c0.9-10.5,2-21,2.9-31.5c0.7-7.6,1.4-15.3,2.1-22.9c0.9-10.2,1.7-20.4,2.6-30.6c1-10.8,2-21.6,3-32.5c0.8-8.9,1.6-17.8,2.4-26.7
				c0.6-6.4,1.2-12.7,1.7-19.1c0.9-10.5,1.7-21,2.6-31.5s2-21,3-31.5c0.7-7.3,1.3-14.6,2-22c0.9-10.2,1.7-20.4,2.6-30.6
				c1-10.8,2-21.6,3-32.5c0.8-8.3,1.6-16.5,2.3-24.8c0.9-10.5,1.7-21,2.6-31.5c0.9-10.2,2-20.4,2.9-30.5c0.8-8.6,1.5-17.2,2.3-25.8
				c0.6-6.4,1.2-12.7,1.7-19.1c0.9-10.5,1.6-21,2.6-31.5c1.1-11.5,2.2-22.9,3.4-34.3c0.1-0.8,0.5-1.6,1-3.5c0.9,10,1.6,19,2.4,27.9
				c1,10.5,2,21,3,31.5c0.7,7.6,1.4,15.3,2.1,22.9c0.9,10.2,1.7,20.4,2.6,30.6c1,10.8,2,21.6,3,32.5c0.7,7.6,1.4,15.3,2.1,22.9
				c0.9,10.2,1.7,20.4,2.6,30.6c1,10.8,2,21.6,3,32.5c0.7,7.6,1.4,15.3,2.1,22.9c0.9,10.2,1.7,20.4,2.6,30.6c1,10.8,2,21.6,3,32.5
				c0.7,7.6,1.4,15.3,2.1,22.9c0.9,9.9,1.6,19.8,2.5,29.6c1,11.1,2,22.3,3.1,33.4c0.8,9.2,1.7,18.5,2.5,27.7
				c0.5,5.7,1.1,11.5,1.6,17.2c0.9,10.2,1.7,20.4,2.6,30.6c1,10.8,2,21.6,3,32.5c0.7,7.6,1.4,15.3,2.1,22.9
				c0.9,10.2,1.7,20.4,2.6,30.6c1,10.8,2,21.6,3,32.5c0.8,8.3,1.6,16.5,2.3,24.8c0.9,10.5,1.6,21,2.6,31.5c0.9,10.2,2,20.4,2.9,30.6
				c0.8,8.6,1.5,17.2,2.3,25.8c0.6,6.4,1.2,12.7,1.7,19.1c0.9,10.2,1.6,20.4,2.5,30.6c0.9,10.5,2,21,2.9,31.5
				c0.7,7.6,1.4,15.3,2.1,22.9c0.9,10.2,1.7,20.4,2.6,30.6c1,10.8,2,21.6,3,32.5c0.2,1.9,0.2,3.8,0.2,5.7c0,0.7-1.4,1.7-2.1,1.5
				c-2.2-0.5-4.4-1-6.5-1.6c-13.6-3.7-27.3-6.5-41.4-7.4c-6.1-0.4-12.1-1.4-18.2-1c-1.2,0.1-2.4,0.2-3.9,0.4c0.5,0.5,0.7,0.9,1,0.9
				c4.4,0.8,8.8,1.7,13.2,2.3c44.9,5.9,83.6,24.8,116.9,55.3c18.5,17,34.1,36.3,46.1,58.5c11.2,20.7,18.6,42.7,22.4,66
				c2.5,15.2,3.7,30.5,3.3,45.8c-1.5,58.5-22,109.1-63.2,151c-15.8,16.1-33.3,29.9-53.2,40.6c-20.1,10.9-41.4,18.4-64,22.1
				c-5.3,0.9-10.7,1.7-16.1,2.5c-0.2,0-0.6,0.6-0.6,0.6c0.3,0.4,0.7,1,1.1,1.1c6.1,0.7,12.2,0.4,18.2-0.3c13.7-1.6,27.2-4,40.4-7.9
				c1.2-0.4,2.4-0.7,3.7-1c1.1-0.3,2.7,0.9,2.7,2c0,0.3,0.1,0.6,0.1,1c-0.8,8.9-1.7,17.8-2.5,26.7c-0.7,7.6-1.4,15.3-2.1,22.9
				c-0.9,10.2-1.7,20.4-2.6,30.6c-1,10.8-2,21.6-3,32.5c-0.7,7.6-1.4,15.3-2.1,22.9c-0.9,10.2-1.7,20.4-2.6,30.6
				c-1,10.8-2,21.7-3,32.5c-0.7,8-1.5,15.9-2.2,23.9c-0.9,10.2-1.6,20.4-2.5,30.6c-0.9,10.5-2,21-2.9,31.5
				c-0.7,7.6-1.4,15.3-2.1,22.9c-0.9,9.9-1.7,19.8-2.5,29.6c-1,11.1-2.1,22.3-3.1,33.4c-0.8,9.2-1.7,18.5-2.5,27.7
				c-0.5,5.7-1.1,11.5-1.6,17.2c-0.8,9.9-1.6,19.8-2.5,29.6c-1,11.1-2,22.3-3.1,33.4c-0.7,7.6-1.4,15.3-2.1,22.9
				c-0.9,9.9-1.6,19.8-2.5,29.6c-1,11.1-2.1,22.3-3.1,33.4c-0.8,9.2-1.7,18.5-2.5,27.7c-0.5,5.7-1.1,11.5-1.6,17.2
				c-0.9,10.2-1.7,20.4-2.6,30.6c-1,10.8-2,21.6-3,32.5c-0.7,7.6-1.4,15.3-2.1,22.9c-0.9,10.2-1.7,20.4-2.6,30.6
				c-1,10.8-2,21.6-3,32.5c-0.7,7.6-1.4,15.3-2.1,22.9c-0.9,9.9-1.6,19.8-2.5,29.6c-1,11.1-2.1,22.3-3.1,33.4
				c-1,10.8-1.9,21.7-2.8,32.5c-1.7-0.3-1.2-1.7-1.3-2.5c-0.6-5.4-1.2-10.8-1.7-16.2c-1-10.8-2-21.6-3-32.5
				c-0.7-8-1.5-15.9-2.2-23.9c-0.9-10.2-1.7-20.4-2.6-30.6c-1-10.8-2-21.6-3-32.5c-0.7-7.6-1.4-15.3-2.1-22.9
				c-0.9-10.2-1.7-20.4-2.6-30.6c-1-10.8-2-21.6-3-32.5c-0.7-7.6-1.4-15.3-2.1-22.9c-0.8-9.9-1.6-19.8-2.5-29.6
				c-1-11.2-2.1-22.3-3.1-33.4c-0.7-7.6-1.4-15.3-2.1-22.9c-0.9-9.9-1.6-19.8-2.5-29.6c-1-11.2-2-22.3-3.1-33.4
				c-0.8-9.2-1.7-18.5-2.5-27.7c-0.5-5.7-1.1-11.5-1.6-17.2c-0.9-10.2-1.6-20.4-2.5-30.6c-1-10.8-2-21.6-3-32.5
				c-0.7-8-1.5-15.9-2.2-23.9c-0.9-10.2-1.6-20.4-2.5-30.6c-0.9-10.5-2-21-3-31.5c-0.8-8.3-1.5-16.5-2.3-24.8
				c-0.9-10.5-1.6-21-2.6-31.6c-0.9-10.2-2-20.4-3-30.6c-0.7-7.3-1.3-14.6-2-22c-0.8-9.9-1.6-19.8-2.5-29.6c-1-11.2-2-22.3-3.1-33.4
				c-0.8-8.3-1.6-16.5-2.3-24.8c-0.9-10.5-1.7-21-2.6-31.6c-0.9-10.2-2-20.4-2.9-30.6c-0.8-8.6-1.5-17.2-2.3-25.8
				c-0.1-1.3-0.2-2.6-0.6-3.8c-0.3-0.8-1-1.6-1.8-2.1c-1.4-0.8-2.9-1.3-4.4-1.8c-11.3-3.6-22.2-8.2-32.7-13.7
				c-1.4-0.7-2.9-1.2-4.1-1.7c-3.5,1.1-5.8,3.4-8.3,5.4c-23.4,18.3-46.8,36.7-70.3,55c-76,59.6-152.1,119.1-228.1,178.7
				c-9.8,7.7-19.6,15.3-29.3,22.9c-0.9-0.4-1-0.9-0.5-1.6c8.2-10.6,16.5-21.2,24.7-31.8c75.3-96.2,150.7-192.3,226-288.5
				c2.2-2.8,4.3-5.6,6.5-8.3c1.6-2.1,1.4-4,0.1-6.1c-8.2-12.6-15.1-26-20.5-40.1c-0.2-0.6-0.5-1.2-0.8-1.8c-0.8-2-2.3-3-4.4-3.1
				c-8-0.7-15.9-1.4-23.9-2.2c-10.8-1-21.6-2-32.5-3c-1.3-0.1-2.5-0.3-3.8-0.4c-18.2-1.5-36.3-3-54.5-4.6c-14.3-1.2-28.7-2.5-43-3.8
				s-28.7-2.6-43-3.8c-14.3-1.3-28.7-2.6-43-3.8c-14.3-1.3-28.7-2.6-43-3.8c-14.3-1.3-28.7-2.5-43-3.8c-17.2-1.6-34.4-3.3-51.6-4.9
				c-10.5-1-21-1.7-31.5-2.6s-21-2-31.5-3c-8-0.8-15.9-1.5-23.9-2.2c-10.5-0.9-21-1.7-31.5-2.6c-10.2-0.9-20.4-1.9-30.5-2.9
				c-1.3-0.1-2.5-0.3-3.8-0.4c-14-1.3-28-2.5-42-3.8c-10.5-0.9-21-1.6-31.5-2.6c-10.2-0.9-20.4-2-30.5-2.9c-8-0.8-15.9-1.5-23.9-2.2
				c-10.5-0.9-21-1.7-31.5-2.6c-10.2-0.9-20.4-2-30.5-2.9c-7.6-0.7-15.3-1.4-22.9-2.1c-10.2-0.9-20.4-1.7-30.6-2.6
				c-10.8-1-21.6-2-32.5-3c-2.9-0.3-5.7-0.4-8.6-0.7c-16.2-1.4-32.3-2.9-48.7-4.3c0.7-0.6,1.1-1.2,1.6-1.3c1.9-0.4,3.8-0.8,5.7-1
				c6.7-0.7,13.4-1.3,20.1-1.8c10.5-0.9,21-1.7,31.5-2.6c10.2-0.9,20.4-2,30.5-2.9c7.6-0.7,15.3-1.4,22.9-2.1
				c10.2-0.9,20.4-1.7,30.6-2.6c10.8-1,21.6-2,32.5-3c7.6-0.7,15.3-1.4,22.9-2.1c10.2-0.9,20.4-1.7,30.6-2.6c10.8-1,21.6-2,32.5-3
				c7.6-0.7,15.3-1.4,22.9-2.1c10.2-0.9,20.4-1.7,30.6-2.6c10.8-1,21.6-2,32.5-3c8.6-0.8,17.2-1.6,25.8-2.4
				c6.7-0.6,13.4-1.2,20.1-1.8c10.5-0.9,21-1.7,31.5-2.6c10.2-0.9,20.4-1.9,30.5-2.9c7.6-0.7,15.3-1.4,22.9-2.1
				c10.2-0.9,20.4-1.7,30.6-2.5c10.8-1,21.6-2,32.5-3c7.6-0.7,15.3-1.4,22.9-2.1c10.2-0.9,20.4-1.7,30.6-2.6c10.8-0.9,21.6-2,32.5-3
				c8.6-0.8,17.2-1.6,25.8-2.3c6.7-0.6,13.4-1.2,20.1-1.8c10.5-0.9,21-1.6,31.5-2.6c10.2-0.9,20.4-2,30.5-2.9
				c7.6-0.7,15.3-1.4,22.9-2.1c10.2-0.9,20.4-1.7,30.6-2.6c10.8-1,21.6-2,32.5-3c10.8-1,21.7-1.8,32.5-2.8
				c5.1-0.5,10.2-1.1,15.2-1.7c1.7-0.2,2.9-1.2,3.7-2.7c0.6-1.1,1-2.3,1.5-3.5c5.1-12.1,11.1-23.8,18.3-34.7c0.7-1.1,1.4-2.1,2-3.3
				c0.8-1.5,0.9-3.1-0.1-4.6c-1.4-2.1-3-4.1-4.6-6.1C831.2,889,772.6,814.2,714,739.4c-24.3-31-48.5-61.9-72.8-92.9
				c-2.1-2.7-3.7-6-7-7.7L634.3,639.1z M1084.5,1209.3c1.2-0.1,4.4-0.3,7.6-0.4c9.4-0.3,18.4-2.3,27.1-5.5
				c27.4-10,47.4-28.4,61.4-53.7c3.4-6.2,5.9-12.7,7.9-19.5c3.4-11.5,4.5-23.2,4.3-35.1c-0.2-9-1.2-17.8-3.6-26.5
				c-9.5-35.8-39.1-62-62.8-72.3c-22.5-9.8-45.8-11.7-69.5-6.5c-34.9,7.7-60.1,28.6-76.5,60.1c-6.6,12.6-9.6,26.3-10.4,40.6
				c-0.9,15.2,0.8,30,5.7,44.4c6.5,18.9,17.9,34.5,32.9,47.6C1029.8,1200.9,1054.5,1209.6,1084.5,1209.3z"/>
			
				<linearGradient id="SVGID_00000052065190438510335280000006946421996900218506_" gradientUnits="userSpaceOnUse" x1="1094.5503" y1="2192.1995" x2="1094.5503" y2="9.995351e-02">
				<stop  offset="5.327789e-09" style="stop-color:#FF1842"/>
				<stop  offset="1" style="stop-color:#AD007C"/>
			</linearGradient>
			<path style="fill:url(#SVGID_00000052065190438510335280000006946421996900218506_);" d="M2189.6,1097.7
				c-14.4,1.4-28.1,2.8-41.8,4c-10.5,1-21,1.7-31.5,2.6c-10.2,0.9-20.4,1.9-30.6,2.9c-1.3,0.1-2.5,0.3-3.8,0.4
				c-10.8,0.9-21.7,1.6-32.5,2.6c-17.5,1.6-35,3.4-52.5,5c-10.5,1-21,1.6-31.5,2.6c-10.2,0.9-20.4,1.9-30.6,2.9
				c-1.6,0.2-3.2,0.3-4.8,0.4c-17.8,1.5-35.7,3-53.5,4.5c-14.3,1.2-28.7,2.5-43,3.8s-28.7,2.6-43,3.8c-14.3,1.3-28.7,2.5-43,3.8
				s-28.7,2.6-43,3.8s-28.7,2.5-43,3.8c-17.2,1.6-34.4,3.3-51.5,4.9c-10.2,0.9-20.4,1.6-30.6,2.5c-10.8,1-21.6,2-32.5,3
				c-0.9,0.1-1.9,0.2-2.9,0.3c-14.3,1.3-28.7,2.6-43,3.8c-10.5,0.9-21,1.6-31.5,2.5c-10.2,0.9-20.4,2-30.5,2.9
				c-7.6,0.7-15.3,1.4-22.9,2.1c-10.2,0.9-20.4,1.6-30.6,2.5c-10.8,1-21.6,2.1-32.5,3c-10.8,1-21.7,1.9-32.5,2.7
				c-1.9,0.2-3.8,0-5.7-0.1c-0.8,0-1.7-1.3-1.5-2.1c0.4-1.5,0.8-3.1,1.2-4.6c4.8-15.3,7.8-31,9.3-46.9c0.7-7.3,0.7-14.7,0.8-22
				c0.5-25.5-3.1-50.3-11.1-74.5c-0.4-1.2-0.6-2.5-0.9-3.7c-0.3-1.4,0.6-2.6,1.9-2.6c2.9,0.1,5.8,0.2,8.6,0.4
				c13.1,1.1,26.1,2.3,39.2,3.5c10.2,0.9,20.4,2,30.5,2.9c7.6,0.7,15.3,1.4,22.9,2.1c10.2,0.9,20.4,1.7,30.6,2.6
				c10.8,1,21.6,2,32.5,3c7.6,0.7,15.3,1.4,22.9,2.1c9.9,0.8,19.8,1.6,29.6,2.5c11.1,1,22.3,2.1,33.4,3.1c7.6,0.7,15.3,1.4,22.9,2.1
				c9.9,0.9,19.8,1.6,29.6,2.5c11.1,1,22.3,2,33.4,3.1c8.3,0.8,16.6,1.6,24.8,2.3c10.5,0.9,21,1.7,31.5,2.6
				c10.2,0.9,20.4,2,30.5,2.9c7.6,0.7,15.3,1.4,22.9,2.1c10.2,0.9,20.4,1.6,30.6,2.5c10.5,0.9,21,1.9,31.5,2.9
				c1.6,0.2,3.2,0.3,4.8,0.5c13.7,1.2,27.4,2.5,41.1,3.7c10.5,0.9,21,1.7,31.5,2.6s21,2,31.5,3c7.6,0.7,15.3,1.4,22.9,2.1
				c10.2,0.9,20.4,1.6,30.6,2.5c10.5,0.9,21,2,31.5,2.9c1.6,0.2,3.2,0.3,4.8,0.5c13.7,1.2,27.4,2.5,41.1,3.7
				c10.5,0.9,21,1.7,31.5,2.6s21,2,31.5,3c8.9,0.8,17.8,1.6,26.8,2.4c10.2,0.9,20.4,1.6,30.6,2.5
				C2185.2,1095.8,2187.4,1095.9,2189.6,1097.7z"/>
			
				<linearGradient id="SVGID_00000111192328348874875970000014546828428695491263_" gradientUnits="userSpaceOnUse" x1="1094.5503" y1="2192.1995" x2="1094.5503" y2="9.995351e-02">
				<stop  offset="5.327789e-09" style="stop-color:#FF1842"/>
				<stop  offset="1" style="stop-color:#AD007C"/>
			</linearGradient>
			<path style="fill:url(#SVGID_00000111192328348874875970000014546828428695491263_);" d="M1215.2,903.1c1-1.2,1.5-2,2.2-2.6
				c111.7-87.6,223.5-175.1,335-262.5c1.3,0.2,1.6,0.7,1,1.4c-12,15.4-24,30.7-36.1,46.1c-73.4,93.7-146.7,187.3-220.1,280.9
				c-1.8,2.3-3.6,4.5-5.4,6.7c-1.2,1.5-2.6,1.3-3.9-0.4c-0.8-1-1.5-2.1-2.3-3.1c-17.7-24.7-39.2-45.5-64.8-61.9
				c-1.6-1-3.1-2.2-4.7-3.3C1216,904.2,1215.9,903.9,1215.2,903.1z"/>
			
				<linearGradient id="SVGID_00000116929336661022034910000002683987031908603063_" gradientUnits="userSpaceOnUse" x1="1094.5503" y1="2192.1995" x2="1094.5503" y2="9.995351e-02">
				<stop  offset="5.327789e-09" style="stop-color:#FF1842"/>
				<stop  offset="1" style="stop-color:#AD007C"/>
			</linearGradient>
			<path style="fill:url(#SVGID_00000116929336661022034910000002683987031908603063_);" d="M1554.4,1558.3
				c-2.1-1.9-4.2-3.9-6.4-5.7c-37-29-74-58-111-86.9c-71-55.6-141.9-111.2-212.9-166.8c-2-1.6-4-3.2-5.9-4.9
				c-1.1-0.9-1.1-2.5-0.1-3.3c1.8-1.3,3.7-2.6,5.5-3.8c24.1-16.2,44.6-36.2,61.6-59.8c1.6-2.3,2.7-5.1,5.4-6.5
				c2.5,1.1,3.8,3.4,5.3,5.4c13,16.6,26,33.2,39,49.8c70.8,90.3,141.5,180.7,212.3,271c1.8,2.3,3.5,4.6,5.3,6.8
				c1,1.3,1.3,2.9,1.4,4.5L1554.4,1558.3z"/>
			
				<linearGradient id="SVGID_00000045602287900838286990000008164843769559982735_" gradientUnits="userSpaceOnUse" x1="1094.5503" y1="2192.1995" x2="1094.5503" y2="9.995351e-02">
				<stop  offset="5.327789e-09" style="stop-color:#FF1842"/>
				<stop  offset="1" style="stop-color:#AD007C"/>
			</linearGradient>
			<path style="fill:url(#SVGID_00000045602287900838286990000008164843769559982735_);" d="M634.1,638.8c0.2,0,0.4,0.1,0.6,0.1
				c-0.1-0.6-0.2-0.5-0.4,0.2C634.3,639.1,634.1,638.8,634.1,638.8z"/>
			
				<linearGradient id="SVGID_00000007405390657828389110000009757055783727441590_" gradientUnits="userSpaceOnUse" x1="1094.5503" y1="2192.1995" x2="1094.5503" y2="9.995351e-02">
				<stop  offset="5.327789e-09" style="stop-color:#FF1842"/>
				<stop  offset="1" style="stop-color:#AD007C"/>
			</linearGradient>
			<path style="fill:url(#SVGID_00000007405390657828389110000009757055783727441590_);" d="M1554,1558.2c0.2-0.1,0.4-0.2,0.6-0.3
				c-0.5-0.4-0.6-0.3-0.2,0.4C1554.4,1558.3,1554,1558.2,1554,1558.2z"/>
		</g>
	</g>
</g>
</svg>
